<?xml version="1.0" standalone="no"?><!DOCTYPE svg PUBLIC "-//W3C//DTD SVG 1.1//EN" "http://www.w3.org/Graphics/SVG/1.1/DTD/svg11.dtd"><svg t="1614674547887" class="icon" viewBox="0 0 1024 1024" version="1.1" xmlns="http://www.w3.org/2000/svg" p-id="8229" width="128" height="128" xmlns:xlink="http://www.w3.org/1999/xlink"><defs><style type="text/css"></style></defs><path d="M304.372 446.629l18.026 9.551-108.014 203.847-18.026-9.552z" fill="#771725" p-id="8230"></path><path d="M180.3 709m-62 0a62 62 0 1 0 124 0 62 62 0 1 0-124 0Z" fill="#FFD400" p-id="8231"></path><path d="M180.3 655c29.8 0 54 24.2 54 54s-24.2 54-54 54-54-24.2-54-54 24.2-54 54-54m0-16c-38.7 0-70 31.3-70 70s31.3 70 70 70 70-31.3 70-70-31.4-70-70-70zM821.24 650.498l-18.026 9.551L695.2 456.203l18.026-9.551z" fill="#771725" p-id="8232"></path><path d="M837.3 709m-62 0a62 62 0 1 0 124 0 62 62 0 1 0-124 0Z" fill="#FFD400" p-id="8233"></path><path d="M837.3 655c29.8 0 54 24.2 54 54s-24.2 54-54 54-54-24.2-54-54 24.3-54 54-54m0-16c-38.7 0-70 31.3-70 70s31.3 70 70 70 70-31.3 70-70-31.3-70-70-70z" fill="#771725" p-id="8234"></path><path d="M512 952c-23.7 0-42.9-19.3-42.9-42.9V585.9h85.8v323.2c0 23.6-19.2 42.9-42.9 42.9z" fill="#FFD400" p-id="8235"></path><path d="M546.9 593.9v315.2c0 19.3-15.7 34.9-34.9 34.9-19.3 0-34.9-15.7-34.9-34.9V593.9h69.8m16-16H461.1v331.2c0 28.1 22.8 50.9 50.9 50.9 28.1 0 50.9-22.8 50.9-50.9V577.9z" fill="#771725" p-id="8236"></path><path d="M512 577.4c-67.2 0-130.4-26.2-178-73.7-47.5-47.5-73.7-110.8-73.7-178s26.2-130.4 73.7-178C381.6 100.2 444.8 74 512 74s130.4 26.2 178 73.7c47.5 47.5 73.7 110.8 73.7 178s-26.2 130.4-73.7 178c-47.6 47.5-110.8 73.7-178 73.7z" fill="#ED393A" p-id="8237"></path><path d="M512 84c32.6 0 64.3 6.4 94.1 19 28.8 12.2 54.6 29.6 76.8 51.8 22.2 22.2 39.6 48.1 51.8 76.8 12.6 29.8 19 61.4 19 94.1s-6.4 64.3-19 94.1c-12.2 28.8-29.6 54.6-51.8 76.8-22.2 22.2-48.1 39.6-76.8 51.8-29.8 12.6-61.4 19-94.1 19-32.6 0-64.3-6.4-94.1-19-28.8-12.2-54.6-29.6-76.8-51.8-22.2-22.2-39.6-48.1-51.8-76.8-12.6-29.8-19-61.4-19-94.1s6.4-64.3 19-94.1c12.2-28.8 29.6-54.6 51.8-76.8 22.2-22.2 48.1-39.6 76.8-51.8 29.8-12.6 61.5-19 94.1-19m0-20c-144.5 0-261.7 117.2-261.7 261.7S367.5 587.4 512 587.4s261.7-117.2 261.7-261.7S656.5 64 512 64z" fill="#771725" p-id="8238"></path><path d="M512 325.7m-180.2 0a180.2 180.2 0 1 0 360.4 0 180.2 180.2 0 1 0-360.4 0Z" fill="#FFD400" p-id="8239"></path><path d="M512 155.5c45.5 0 88.2 17.7 120.3 49.8 32.1 32.1 49.8 74.9 49.8 120.3s-17.7 88.2-49.8 120.3c-32.1 32.1-74.9 49.8-120.3 49.8s-88.2-17.7-120.3-49.8c-32.1-32.1-49.8-74.9-49.8-120.3s17.7-88.2 49.8-120.3c32.1-32.1 74.8-49.8 120.3-49.8m0-20c-105 0-190.2 85.2-190.2 190.2 0 105 85.2 190.2 190.2 190.2 105 0 190.2-85.2 190.2-190.2 0-105-85.2-190.2-190.2-190.2zM461.1 800.9h101.8v16H461.1zM461.1 743.1h101.8v16H461.1z" fill="#771725" p-id="8240"></path></svg>